<svg width="126" height="87" viewBox="0 0 126 87" fill="none" xmlns="http://www.w3.org/2000/svg">
<g clip-path="url(#clip0_205_13)">
<path d="M69.6052 43.5579C71.7494 42.0018 76.9423 41.0736 76.6352 37.9035C76.2922 34.3616 74.0678 33.5133 75.7333 28.5722C77.7917 22.4717 82.2459 22.9041 86.8191 21.3039C88.125 20.8467 87.6795 19.767 86.2796 19.6899C79.1141 19.2933 72.8339 26.8316 73.5698 33.7777C73.6805 34.8271 75.1606 38.088 74.8314 38.8041C74.7844 38.9088 73.1272 39.8122 72.8477 39.9719C70.8945 39.7406 68.6508 40.8643 66.6284 41.2278C56.8677 42.9878 46.3601 42.4838 36.522 44.1005C32.7152 44.7257 21.2697 48.6036 18.4948 47.8682C18.362 47.8324 17.7257 47.3697 17.6842 47.2403C16.868 44.7174 25.439 40.5613 27.0575 39.074C27.4586 39.0135 28.8973 39.198 28.8613 38.537C35.8138 38.5067 42.9904 36.3859 46.4376 29.9218L53.5589 30.7288L46.5289 28.933C46.3463 25.1956 51.6084 27.454 53.9213 26.0604C53.9213 25.2837 47.4419 26.2394 46.9799 25.9695C46.8498 25.8951 46.5566 24.7411 46.9799 24.3555C47.9786 23.4411 52.3471 23.477 53.5589 22.2926C52.5933 21.6124 46.9218 23.6835 46.6174 23.4604C46.5012 21.1772 45.3116 19.1005 44.9049 16.9109C44.7472 16.0654 45.0349 14.8342 44.9049 13.9501C45.7155 12.1461 47.6024 11.543 49.0521 10.5404C49.2402 11.0692 49.5251 10.8489 49.8627 10.7194C53.6668 9.27073 57.8471 6.07585 62.1216 4.4371C81.5487 -3.01304 108.233 1.06319 119.54 19.7808C133.069 42.1808 119.673 59.816 96.1952 64.0189C86.0334 65.8367 55.4817 64.8397 54.281 78.8256C54.0873 81.0868 55.7224 88.7132 50.5848 85.017C46.623 82.1664 47.9205 75.5095 50.3136 72.0061C63.4412 52.7955 105.134 69.0922 117.197 42.2138C117.446 41.6575 119.244 37.1158 118.549 36.9203C113.719 41.5997 106.396 43.6818 99.8001 44.4585C95.3569 44.9818 90.8861 44.5109 86.4595 44.8166C82.8739 45.0645 79.3631 46.2543 75.8218 46.6123C73.6279 46.8327 64.1356 47.524 69.6025 43.5607L69.6052 43.5579Z" fill="#411E03"/>
<path d="M69.6052 43.558C64.1384 47.5213 73.6307 46.83 75.8246 46.6096C79.3659 46.2516 82.8739 45.0645 86.4622 44.8139C90.8888 44.5054 95.3597 44.9792 99.8029 44.4559C106.398 43.6792 113.722 41.597 118.552 36.9176C119.247 37.1131 117.448 41.6576 117.199 42.2112C105.137 69.0895 63.444 52.7928 50.3164 72.0035C47.9233 75.5068 46.6257 82.1637 50.5875 85.0144C55.7251 88.7105 54.0901 81.0841 54.2837 78.8229C55.4844 64.837 86.0362 65.8368 96.198 64.0163C119.675 59.8133 133.071 42.1754 119.543 19.7781C108.236 1.05775 81.5487 -3.01572 62.1243 4.43441C57.8499 6.07317 53.6695 9.2653 49.8654 10.7168C49.5279 10.8462 49.2402 11.0666 49.0548 10.5377C72.9307 -5.99578 111.221 -4.46995 123.51 25.1654C131.815 45.194 118.259 60.3972 99.0835 64.5588C89.049 66.7374 59.4877 65.8891 55.9077 76.8536C54.7872 80.2881 57.3934 88.884 51.1298 86.6338C45.5357 84.6233 46.5427 75.7299 49.2374 71.6482C58.9704 56.9104 86.1634 61.4796 101.247 55.4066C108.194 52.6083 115.393 46.6069 117.111 39.0741C111.193 43.7287 102.901 45.4116 95.4786 45.8935C91.9512 46.1221 88.385 45.7228 84.841 46.0726C81.463 46.4086 70.059 49.5401 67.7156 46.9704C66.4458 45.5768 68.0034 43.6709 69.608 43.5607L69.6052 43.558Z" fill="#070809"/>
<path d="M20.0275 39.2504C16.9067 41.8283 10.6348 43.5139 6.59556 43.737C5.80431 43.7811 3.16495 43.9573 2.89936 43.109C2.10534 40.5531 10.7565 36.9451 12.6351 36.1987C13.5619 36.7386 14.6658 37.5731 15.6092 37.9945C16.9178 38.5784 19.037 38.7904 20.0247 39.2504H20.0275Z" fill="#411E03"/>
<path d="M27.0602 39.0713C25.4418 40.5586 16.8708 44.7147 17.6869 47.2375C17.7284 47.367 18.3675 47.8297 18.4976 47.8655C21.2725 48.6009 32.7207 44.7229 36.5248 44.0977C46.3629 42.481 56.8705 42.985 66.6311 41.2251C68.6535 40.8615 70.8973 39.7378 72.8505 39.9692C65.6739 44.0289 46.919 43.6295 37.9662 44.9956C33.8633 45.6208 20.5227 49.9477 17.7755 48.7634C16.7131 48.3062 16.406 47.2485 16.6024 46.1606C17.0478 43.7176 24.894 39.3963 27.0575 39.0713H27.0602Z" fill="#070809"/>
<path d="M12.6378 36.2017C10.7621 36.9481 2.1081 40.5561 2.90212 43.112C3.16495 43.9603 5.80707 43.784 6.59832 43.7399C10.6348 43.5168 16.9067 41.8313 20.0302 39.2533C20.2654 39.3635 20.3982 39.5232 20.5697 39.7023C18.99 41.3796 16.7324 42.6575 14.5302 43.3819C12.3999 44.0815 2.29623 46.4749 1.64055 43.4728C0.901859 40.0989 8.91398 36.5156 11.4648 35.4856C12.162 35.2267 12.3557 36.0392 12.6378 36.2044V36.2017Z" fill="#070809"/>
<path d="M44.9077 13.9475C45.0377 14.8316 44.75 16.0627 44.9077 16.9082C45.3144 19.0978 46.504 21.1745 46.6202 23.4578C46.9218 23.6808 52.5961 21.6097 53.5617 22.29C52.3471 23.4743 47.9814 23.4385 46.9827 24.3529C46.5594 24.7412 46.8526 25.8925 46.9827 25.9668C47.4447 26.234 53.9213 25.2783 53.9241 26.0577C51.614 27.4514 46.3519 25.1929 46.5317 28.9304L53.5617 30.7261L46.4404 29.9191C42.9932 36.3833 35.8166 38.504 28.8641 38.5343C21.6958 38.5646 13.4568 36.9286 10.0262 29.9191L1.46351 32.1638C2.2354 31.0373 9.59736 29.3463 9.75506 28.9331C10.8174 26.1734 2.05557 27.9636 1.01255 27.9471C0.766325 27.9444 -0.135592 28.0077 0.0221047 27.4982C0.265567 26.7105 8.77568 26.9694 9.03574 26.6003C9.07171 26.548 9.06617 25.4132 9.03574 25.3444C8.60691 24.3116 2.335 23.8351 1.19238 23.4605C0.951688 23.3806 0.564362 23.5266 0.561595 23.0116L9.03574 24.0885C9.93766 18.7673 9.86573 13.0331 10.8396 7.756C11.0637 6.54139 12.0348 1.07704 13.6339 1.20649C14.5994 1.2836 18.4948 5.23039 19.3137 6.14203C19.8006 6.68461 21.8839 9.92081 22.108 10.0007C22.7831 10.2431 25.3422 9.33692 26.2552 9.28183C28.3108 9.15789 30.3968 9.29836 32.3832 9.8189C34.4139 7.67888 36.5774 4.82552 38.8737 2.99948C40.8048 1.46263 42.4648 -0.244982 43.4718 3.26939C44.3737 6.42021 44.4484 10.7553 44.9132 13.9475H44.9077Z" fill="#070809"/>
<path d="M41.5711 2.28047C42.1438 2.30251 42.4592 3.88067 42.5616 4.34338C43.3279 7.77512 43.0015 12.0634 43.6433 15.6494C43.8923 17.0513 45.9977 23.1133 45.627 23.9038C45.544 24.0801 43.5548 24.6254 44.0058 25.1597L45.8096 24.9807C46.2025 26.8811 44.5646 25.9529 43.6461 26.9554C43.7595 27.6302 46.7973 26.5258 45.6298 28.3904C45.2922 28.9275 43.0402 27.8148 43.1066 28.7484C43.1398 29.2167 45.1235 29.2552 45.2701 29.6463C41.2917 40.4208 16.3175 39.9829 11.7387 30.9022C11.0471 29.5334 11.6115 29.0239 11.5589 28.9275C11.5146 28.8476 10.0926 28.4785 10.4771 27.6715L11.5589 27.1345C11.5008 26.7158 8.23342 26.3908 11.0194 25.3387C8.75631 23.6559 10.6072 20.7998 10.8396 18.6983C11.0581 16.7098 11.8964 2.57517 13.8137 2.45674C15.6812 3.76224 17.2913 5.47536 18.7715 7.21327C19.5019 8.07258 20.6389 10.3255 21.1148 10.802C21.9337 11.6255 25.4141 10.4137 26.7947 10.3531C28.9194 10.2622 31.0082 10.6973 33.1053 10.8901C33.5895 9.47998 40.8767 2.25018 41.5794 2.27497L41.5711 2.28047Z" fill="#411E03"/>
<path d="M37.7864 22.7393C40.1048 23.9043 44.501 25.7772 38.4172 24.8022C38.0022 25.824 40.3594 26.843 40.0384 27.6748C39.6069 28.7985 38.1212 26.2757 37.6038 26.328C36.2509 26.4685 38.2429 29.2364 37.0643 29.3797C36.3561 29.465 36.0296 27.5206 35.8028 27.4049C35.5289 27.2644 33.5618 27.6362 32.3777 27.0468C31.5311 26.6254 28.9 23.2626 30.5739 23.2791C30.8726 23.2791 31.8493 26.7769 35.0807 26.1517C37.1197 25.7579 37.3853 22.8384 37.7837 22.742L37.7864 22.7393Z" fill="white"/>
<path d="M16.5139 22.9209C19.8726 30.5611 23.0349 23.5571 23.7237 23.458C25.5746 23.1936 22.6918 26.9365 21.9199 27.4075C21.5326 27.6444 20.1742 27.6031 20.0275 28.0355C19.9971 28.1264 20.4259 30.0047 19.3968 29.5613C18.8739 29.3355 19.7066 26.6997 17.5929 26.8704C16.8238 26.931 15.991 30.0571 15.5207 28.3963C15.1749 27.1789 17.4933 26.0772 16.1515 25.0774C10.5712 28.3026 14.8042 24.5349 16.5112 22.9237L16.5139 22.9209Z" fill="white"/>
<path d="M13.7196 13.2285C13.7003 13.2065 13.2825 13.2643 13.1801 12.9586C12.7873 11.8184 13.0307 6.11165 13.9022 5.51123L17.687 11.1656L13.7196 13.2285Z" fill="white"/>
<path d="M26.6093 27.9447C27.1488 27.8042 28.7866 28.1182 28.8641 28.7517C28.9499 29.4595 27.6385 29.9277 27.6025 30.0076C27.229 30.8394 27.5555 34.0893 29.1352 33.8663C29.2736 33.847 31.4011 31.3021 30.4881 33.5963C29.5751 35.8906 27.3591 33.6955 27.1543 33.6872C27.0049 33.6817 25.0545 35.169 24.7197 33.4173C24.2688 31.0597 25.605 33.4614 25.7102 33.5082C26.9856 34.0453 27.0852 30.7595 26.8832 30.1894C26.8307 30.0407 24.4292 28.5203 26.6121 27.9447H26.6093Z" fill="white"/>
<path d="M13.7196 13.2285L17.687 11.1656L13.9022 5.5112C14.1678 5.32667 14.4113 5.23302 14.7128 5.33217C15.8223 5.69022 18.5252 10.2402 18.9485 11.5236C18.8904 11.8156 14.0489 14.0685 13.5398 13.4984C13.6145 13.4213 13.7805 13.3029 13.7196 13.2285Z" fill="#070809"/>
<path d="M40.6693 4.61356C41.1175 4.5447 41.3277 4.56949 41.6597 4.88347C42.4897 5.66291 42.6944 13.0965 41.9308 13.4078L36.251 11.1631C36.085 10.5516 39.8586 4.7375 40.6665 4.61356H40.6693Z" fill="#070809"/>
<path d="M40.6693 5.86965C41.5601 5.78152 41.5657 11.5406 41.2088 12.331L37.5126 10.6262L40.6665 5.86965H40.6693Z" fill="white"/>
</g>
<defs>
<clipPath id="clip0_205_13">
<rect width="126" height="87" fill="white"/>
</clipPath>
</defs>
</svg>
